HIERARCHY
ROOT pelvis
{
  OFFSET 0 100 0
  CHANNELS 6 Xposition Yposition Zposition Zrotation Xrotation Yrotation
  JOINT pelvis_right_femur
  {
    OFFSET -10.78128 -3.44521 -0.5502486
    CHANNELS 3 Zrotation Xrotation Yrotation
    JOINT right_femur_tibia
    {
      OFFSET -0.8047443 -44.0398 -0.1307829
      CHANNELS 3 Zrotation Xrotation Yrotation
      JOINT right_tibia_foot
      {
        OFFSET 3.006224 -47.83518 -5
        CHANNELS 3 Zrotation Xrotation Yrotation
        End Site
        {
          OFFSET 0 -5 15
        }
      }
    }
  }
  JOINT pelvis_left_femur
  {
    OFFSET 10.78128 -3.44521 -0.5502486
    CHANNELS 3 Zrotation Xrotation Yrotation
    JOINT left_femur_tibia
    {
      OFFSET 0.8047443 -44.0398 -0.1307829
      CHANNELS 3 Zrotation Xrotation Yrotation
      JOINT left_tibia_foot
      {
        OFFSET -4.370144 -48.10324 -4.275266
        CHANNELS 3 Zrotation Xrotation Yrotation
        End Site
        {
          OFFSET 0 -5 15
        }
      }
    }
  }
  JOINT pelvis_spine1
  {
    OFFSET 0 6.468898 -3.129235
    CHANNELS 3 Zrotation Xrotation Yrotation
    JOINT spine1
    {
      OFFSET 0 23.15396 4.99043
      CHANNELS 3 Zrotation Xrotation Yrotation
      JOINT spine2
      {
        OFFSET 0 20.79997 -5.064912
        CHANNELS 3 Zrotation Xrotation Yrotation
        JOINT neck
        {
          OFFSET 0 14.38658 9.616178
          CHANNELS 3 Zrotation Xrotation Yrotation
          End Site
          {
            OFFSET 0 20 0
          }
        }
      }
      JOINT right_manubrium
      {
        OFFSET -5.722621 16.35077 3.967754
        CHANNELS 3 Zrotation Xrotation Yrotation
        JOINT right_clavicle
        {
          OFFSET -13.16364 1.694482 -4.693211
          CHANNELS 3 Zrotation Xrotation Yrotation
          JOINT right_humerus
          {
            OFFSET -28.5034 -0.3100689 -2.792744
            CHANNELS 3 Zrotation Xrotation Yrotation
            JOINT right_radius
            {
              OFFSET -25.15693 0.02248979 -1.271978
              CHANNELS 3 Zrotation Xrotation Yrotation
              End Site
              {
                OFFSET -15 0 0
              }
            }
          }
        }
      }
      JOINT left_manubrium
      {
        OFFSET 5.722621 16.35077 3.967754
        CHANNELS 3 Zrotation Xrotation Yrotation
        JOINT left_clavicle
        {
          OFFSET 13.16364 1.694482 -4.693211
          CHANNELS 3 Zrotation Xrotation Yrotation
          JOINT left_humerus
          {
            OFFSET 29.39168 -1.063119 -2.237045
            CHANNELS 3 Zrotation Xrotation Yrotation
            JOINT left_radius
            {
              OFFSET 24.59957 -0.9528479 0.9047498
              CHANNELS 3 Zrotation Xrotation Yrotation
              End Site
              {
                OFFSET 15 -0 -0
              }
            }
          }
        }
      }
    }
  }
}
MOTION
Frames: 19
Frame Time: 0.0416666666667
0 103.5113 0 1.366723 -2.470355 0.09252593 2.457733 -14.49579 7.232459 -0 39.28178 -0 -5.575434 -14.73057 -4.507925 -7.025166 13.04586 -24.75306 -0 5.237078 -0 -2.022943 -21.51052 23.11285 -3.487796 -3.30832 3.999352 1.302229 8.076085 -7.494907 0.570449 23.09152 8.274478 4.921845 -21.12227 7.890336 7.288032 -19.09279 11.27428 86.60604 36.50095 -21.82458 -0 0 16.37102 -8.782039 8.758221 4.671842 5.35675 -19.55894 -3.490578 -100.3578 40.57706 28.7237 0 0 -21.24649 -12.39957 16.59381 28.51771
0.2460092 103.5616 1.278982 1.047532 -2.215727 0.1254097 2.935245 -15.63286 7.505629 -0 40.2037 -0 -5.630339 -14.51266 -4.36387 -6.87069 12.74794 -24.9607 -0 5.454959 -0 -2.345873 -21.92907 23.23629 -3.170605 -3.215668 4.103933 1.108136 8.006013 -7.422624 0.6910411 22.96841 8.397527 5.086302 -21.27428 8.102594 7.450486 -19.06982 11.25774 86.49949 36.69331 -21.70825 -0 0 16.75205 -8.489643 9.071947 4.137263 5.785056 -19.76884 -3.134937 -100.8067 40.4653 29.07667 0 0 -20.8789 -11.84369 17.42742 28.04415
0.4451596 103.2839 2.949417 0.8489686 -1.401249 0.240134 3.175128 -19.71008 6.739197 -0 34.91521 -0 -6.08852 -12.12968 -4.217516 -6.502692 13.10225 -23.3604 -0 4.63045 -0 -2.788118 -23.66527 21.6776 -3.103979 -2.571264 4.035885 1.288158 7.905249 -7.680112 0.8349344 22.60729 8.308081 5.134899 -21.93794 8.075341 6.776279 -18.82758 11.08592 87.05071 35.86398 -22.42413 -0 0 15.92009 -8.802818 8.631216 4.374554 6.178933 -20.65195 -3.065786 -98.86772 40.06779 26.97952 0 0 -23.0542 -10.75723 16.75505 27.16758
0.605319 102.7953 4.964957 0.5392227 -0.612466 0.431544 3.624101 -23.22132 6.239948 -0 31.14704 -0 -6.491968 -9.846599 -4.054563 -6.130727 13.33724 -22.15858 -0 4.353871 -0 -3.553383 -24.98999 20.31927 -2.819913 -2.057691 4.001667 1.302191 7.795346 -7.83304 0.9768991 22.22092 8.3026 5.290066 -22.4548 8.065902 6.364572 -18.62766 10.95657 87.48754 35.42229 -22.92918 -0 0 15.44645 -9.047391 8.557391 4.463241 6.611572 -21.35047 -2.967925 -97.70919 39.76685 25.76596 0 0 -24.67097 -10.07488 16.42704 26.81833
0.7171096 102.121 7.39865 0.1667943 0.259577 0.7051668 4.151483 -26.737 5.716141 -0 27.2052 -0 -6.89893 -7.441563 -3.898337 -5.689198 13.72085 -20.88299 -0 4.494292 -0 -4.415263 -25.99713 18.70902 -2.468598 -1.518986 3.863379 1.368135 7.637861 -7.993509 1.120305 21.81738 8.263694 5.388233 -23.05016 8.069241 5.946264 -18.33836 10.81539 87.90708 35.03946 -23.35986 -0 0 14.87829 -9.35013 8.58552 4.666019 6.924171 -21.88054 -2.918539 -96.45658 39.30628 24.46871 0 0 -26.10025 -9.30996 16.03801 26.38547
0.7760159 101.3149 10.3126 -0.2767839 1.189556 1.061026 4.785385 -29.96082 5.223231 -0 23.42669 -0 -7.279665 -5.042201 -3.756698 -5.191844 14.22178 -19.62155 -0 5.257103 -0 -5.347084 -26.46651 16.90075 -2.02604 -1.002542 3.616741 1.488784 7.443413 -8.152599 1.245093 21.40852 8.194123 5.417076 -23.71876 8.078428 5.576385 -17.98023 10.68663 88.28123 34.79171 -23.67813 -0 0 14.26141 -9.698059 8.76278 5.00144 7.05217 -22.15697 -2.943527 -95.26666 38.69666 23.28811 0 0 -27.17566 -8.544526 15.60266 25.96608
0.7781332 100.45 13.77662 -0.7936011 2.118994 1.489713 5.514838 -32.62699 4.752366 -0 19.93811 -0 -7.601249 -2.86229 -3.661081 -4.635349 14.86513 -18.38784 -0 6.948896 -0 -6.285372 -26.17021 14.89166 -1.500373 -0.5238116 3.222758 1.7068 7.199376 -8.311987 1.339702 21.03928 8.069123 5.316772 -24.45762 8.101548 5.25275 -17.5141 10.57556 88.58309 34.66013 -23.84301 -0 0 13.53511 -10.09301 9.096724 5.49595 6.908597 -22.08661 -3.057698 -94.10667 37.88028 22.16548 0 0 -27.72046 -7.713099 15.12001 25.43929
0.7257329 99.63385 17.8483 -1.377409 2.937566 1.962621 6.326931 -34.31474 4.319482 -0 17.10399 -0 -7.830706 -1.189682 -3.643728 -4.033095 15.57458 -17.24002 -0 9.986273 -0 -7.19485 -24.86816 12.76086 -0.8893654 -0.1234309 2.684542 2.032732 6.915473 -8.459057 1.386451 20.76495 7.880394 5.054399 -25.20698 8.130187 5.008397 -16.92923 10.50533 88.77623 34.63796 -23.81192 -0 0 12.69008 -10.53024 9.610351 6.135101 6.439754 -21.60952 -3.253809 -93.05506 36.85497 21.16398 0 0 -27.54299 -6.83322 14.63744 24.77927
0.6316572 99.01136 22.55193 -1.993386 3.474813 2.420365 7.167158 -34.5295 3.932654 -0 15.35491 -0 -7.959346 -0.3588877 -3.727247 -3.417873 16.12846 -16.22168 -0 14.85648 -0 -8.067114 -22.39724 10.65674 -0.2073057 0.1565958 2.066718 2.444888 6.632129 -8.569406 1.370872 20.65521 7.630003 4.627949 -25.8419 8.137636 4.881891 -16.24066 10.51044 88.8241 34.6811 -23.55861 -0 0 11.7377 -11.0083 10.3006 6.856875 5.652462 -20.75435 -3.488231 -92.20642 35.66004 20.35233 0 0 -26.52625 -5.94285 14.23384 23.97705
0.522654 98.74702 27.84928 -2.55625 3.533658 2.768711 7.916108 -32.84378 3.58802 -0 14.99154 -0 -8.030159 -0.6172953 -3.893598 -2.855431 16.07468 -15.31081 -0 21.94457 -0 -8.932693 -18.81517 8.800638 0.496879 0.293468 1.539397 2.868043 6.440494 -8.604721 1.290766 20.76985 7.336053 4.098185 -26.17967 8.071267 4.902087 -15.52286 10.63439 88.70572 34.70331 -23.10048 -0 0 10.73346 -11.53735 11.10274 7.551169 4.656975 -19.71191 -3.682524 -91.64359 34.38423 19.79998 0 0 -24.77851 -5.094144 13.98159 23.06546
0.434549 98.97555 33.61609 -2.923109 2.966376 2.898823 8.389576 -29.12313 3.272208 -0 15.86345 -0 -8.132752 -1.951523 -4.069442 -2.440238 14.76407 -14.37399 -0 31.22209 -0 -9.830208 -14.54144 7.454927 1.115748 0.3188896 1.367629 3.177477 6.467271 -8.514998 1.168555 21.12676 7.026542 3.593079 -26.03451 7.866221 5.054271 -14.91153 10.9082 88.42283 34.59473 -22.49621 -0 0 9.778544 -12.149 11.86679 8.093883 3.673206 -18.83707 -3.749278 -91.36258 33.12248 19.51382 0 0 -22.73029 -4.301611 13.88002 22.0796
0.394729 99.73071 39.64722 -2.929497 1.765722 2.740139 8.4005 -23.69645 2.982991 -0 17.20412 -0 -8.336145 -3.983748 -4.158583 -2.246334 11.61472 -13.21595 -0 41.89103 -0 -10.71594 -10.35526 6.862823 1.482931 0.3333536 1.794905 3.243688 6.804408 -8.247368 1.053334 21.67819 6.722759 3.25891 -25.31619 7.482288 5.25631 -14.55621 11.31516 87.98869 34.29323 -21.78342 -0 0 9.004073 -12.8975 12.40019 8.419928 2.962263 -18.49289 -3.636877 -91.23211 31.91242 19.39259 0 0 -21.01817 -3.515954 13.81062 21.014
0.4006653 100.897 45.70704 -2.471623 0.09366239 2.313011 7.865772 -17.28906 2.739479 -0 17.93282 -0 -8.604171 -6.097549 -4.116039 -2.251382 6.549835 -11.73468 -0 52.29098 -0 -11.36861 -7.128405 7.184806 1.42338 0.4623014 2.851813 3.00739 7.415052 -7.765091 1.005197 22.32693 6.419405 3.163429 -24.1031 6.946954 5.373631 -14.53507 11.76568 87.4088 33.86043 -20.88326 -0 0 8.533798 -13.83659 12.58386 8.587164 2.689404 -18.78152 -3.364838 -91.05097 30.71595 19.24641 0 0 -20.10534 -2.671767 13.59408 19.82448
0.4181155 102.2311 51.60409 -1.588019 -1.772577 1.724398 6.89068 -10.71828 2.567495 -0 17.30296 -0 -8.783269 -7.76676 -3.986576 -2.332122 0.2067017 -10.02016 -0 60.29918 -0 -11.42403 -5.397599 8.470315 0.8538296 0.7688228 4.271832 2.527101 8.121766 -7.077479 1.064283 22.96696 6.08586 3.237515 -22.61958 6.361332 5.284295 -14.82275 12.12561 86.66826 33.4559 -19.58547 -0 0 8.472488 -14.97147 12.45232 8.764572 2.82034 -19.41524 -3.028862 -90.70761 29.47882 18.9267 0 0 -19.92321 -1.773691 13.11326 18.49042
0.4106505 103.4398 57.24232 -0.4815295 -3.504478 1.101534 5.76243 -4.598147 2.482502 -0 15.2935 -0 -8.665277 -8.853476 -3.843105 -2.332521 -6.414844 -8.268465 -0 64.00149 -0 -10.59826 -5.095512 10.64514 -0.118332 1.204517 5.642248 1.951785 8.723823 -6.263473 1.215682 23.49209 5.704848 3.329509 -21.1487 5.8474 4.953983 -15.37308 12.30089 85.71155 33.17535 -17.66988 -0 0 8.96592 -16.22818 12.12021 9.149083 3.164934 -19.90515 -2.763375 -90.31277 28.19163 18.5046 0 0 -19.90492 -0.9072797 12.33838 17.05814
0.3789712 104.2566 62.63066 0.5264922 -4.769352 0.5200421 4.846175 0.7499155 2.482821 -0 12.46885 -0 -8.072466 -9.685274 -3.681796 -2.070767 -12.55902 -6.618215 -0 62.21527 -0 -8.966993 -5.643911 13.4383 -1.167664 1.642254 6.65065 1.435104 9.128046 -5.458016 1.374817 23.77615 5.32085 3.315922 -19.95621 5.482662 4.44849 -16.22849 12.30438 84.43739 32.88895 -15.0644 -0 0 10.26112 -17.49682 11.6473 9.881563 3.533575 -19.89133 -2.657944 -90.15742 26.88864 18.3411 0 0 -19.39213 -0.1812049 11.25219 15.64886
0.3753349 104.4912 67.86825 1.090978 -5.334308 -0.02141783 4.423482 5.244487 2.537454 -0 9.663431 -0 -6.974741 -10.87579 -3.399177 -1.310274 -17.95746 -5.07582 -0 54.87289 -0 -7.079669 -6.319653 16.29733 -1.847609 1.944187 7.205767 1.048537 9.357113 -4.79425 1.42917 23.7097 5.039175 3.159777 -19.21474 5.287191 3.861241 -17.49319 12.22862 82.79654 32.27581 -11.93452 -0 0 12.58708 -18.73718 11.04316 10.99246 3.846383 -19.33024 -2.679589 -90.49293 25.6264 18.91093 0 0 -18.06643 0.3031958 9.89434 14.47409
0.4768416 104.0723 73.11589 1.003932 -5.213594 -0.568712 4.512644 8.978851 2.576042 -0 7.750331 -0 -5.596063 -12.88805 -2.881457 0.09437901 -22.55238 -3.60676 -0 43.42863 -0 -5.706986 -6.644505 18.52455 -1.837722 2.011253 7.402739 0.7506979 9.453028 -4.333573 1.332273 23.30988 4.954352 2.901654 -18.91505 5.258382 3.233878 -19.13768 12.1387 80.96547 31.13071 -8.685984 -0 0 15.81979 -20.03155 10.3941 12.36618 4.105567 -18.45757 -2.688552 -91.29173 24.48774 20.41464 0 0 -16.12922 0.4786301 8.528381 13.78672
0.7378375 103.0853 78.55719 0.3887622 -4.687332 -1.166304 4.771895 12.15211 2.526088 -0 7.365979 -0 -4.334436 -15.47845 -2.127491 1.855748 -26.12352 -2.350938 -0 30.86563 -0 -5.258526 -6.54696 19.69255 -1.237404 1.805931 7.436724 0.4450527 9.41015 -4.033336 1.164306 22.76881 5.066027 2.6317 -18.87208 5.389571 2.563055 -20.83792 11.99107 79.35469 29.70668 -5.836952 -0 0 19.26267 -21.47227 9.881819 13.75908 4.299034 -17.58706 -2.560904 -92.22016 23.59047 22.51252 0 0 -14.12877 0.3711609 7.580678 13.71796
